<svg xmlns="http://www.w3.org/2000/svg" width="107" height="65"><g fill="#363636"><path d="M99 4c.7 1.5 1.2 3.2 1.2 4.9v21c0 4.7-3.1 8.6-7.3 10-1.3 4-3.7 7.8-8 10.4-8.7 5.3-31.1 4.9-31.2 4.9-.1 0-22.5.4-31.2-4.9a18.7 18.7 0 01-8-10.3 10.5 10.5 0 01-7.8-10V8.9c0-1.7.4-3.3 1.1-4.7C4.2 5.2 0 6.9 0 10.4v30c0 10.3 11.8 24.4 53.7 24.4 41.8 0 53.6-14.1 53.6-24.4v-30c0-3.7-4.6-5.5-8.3-6.3z"/><path d="M20.6 38.5H86a10 10 0 0010-10.1V9.9a10 10 0 00-10-10H20.6a10 10 0 00-10.1 10v18.5a10 10 0 0010 10zm63-29a1.6 1.6 0 110 3.1 1.6 1.6 0 010-3.1zm0 4a1.6 1.6 0 11.1 3.1 1.6 1.6 0 010-3zm0 4a1.6 1.6 0 11.1 3.2 1.6 1.6 0 010-3.2zm0 3.9a1.6 1.6 0 110 3.1 1.6 1.6 0 010-3.1zm0 4a1.6 1.6 0 11.1 3.1 1.6 1.6 0 010-3zm-4-16a1.6 1.6 0 110 3.2 1.6 1.6 0 010-3.1zm0 16a1.6 1.6 0 110 3.1 1.6 1.6 0 010-3zm-4-16a1.6 1.6 0 110 3.2 1.6 1.6 0 010-3.1zm0 4.1a1.6 1.6 0 110 3.1 1.6 1.6 0 010-3zm0 4a1.6 1.6 0 110 3.2 1.6 1.6 0 010-3.2zm0 3.9a1.6 1.6 0 110 3.1 1.6 1.6 0 010-3.1zm0 4a1.6 1.6 0 110 3.1 1.6 1.6 0 010-3zM68 9.4a1.6 1.6 0 110 3.2 1.6 1.6 0 010-3.1zm0 8.1a1.6 1.6 0 110 3.2 1.6 1.6 0 010-3.2zm0 4a1.6 1.6 0 110 3 1.6 1.6 0 010-3zm0 4a1.6 1.6 0 110 3 1.6 1.6 0 010-3zm-4-16a1.6 1.6 0 110 3.1 1.6 1.6 0 010-3.1zm0 8a1.6 1.6 0 110 3.2 1.6 1.6 0 010-3.2zm0 8a1.6 1.6 0 110 3 1.6 1.6 0 010-3zm-4.1-16a1.6 1.6 0 110 3.1 1.6 1.6 0 010-3.1zm0 4a1.6 1.6 0 110 3.1 1.6 1.6 0 010-3zm0 4a1.6 1.6 0 110 3.2 1.6 1.6 0 010-3.2zm0 8a1.6 1.6 0 110 3 1.6 1.6 0 010-3zm-8.3-16a1.6 1.6 0 110 3.1 1.6 1.6 0 010-3.1zm0 4a1.6 1.6 0 110 3.1 1.6 1.6 0 010-3zm0 4a1.6 1.6 0 110 3.2 1.6 1.6 0 010-3.2zm0 4a1.6 1.6 0 110 3 1.6 1.6 0 010-3zm0 4a1.6 1.6 0 110 3 1.6 1.6 0 010-3zm-4-12a1.6 1.6 0 110 3.1 1.6 1.6 0 010-3zm-8.5-.2a1.6 1.6 0 110 3.1 1.6 1.6 0 010-3.1zm0 4a1.6 1.6 0 110 3.2 1.6 1.6 0 010-3.2zm-4-8a1.6 1.6 0 110 3 1.6 1.6 0 010-3zm0 4a1.6 1.6 0 110 3.1 1.6 1.6 0 010-3.1zm0 4a1.6 1.6 0 110 3.2 1.6 1.6 0 010-3.2zm0 4a1.6 1.6 0 110 3.2 1.6 1.6 0 010-3.1zm-4.3-8a1.6 1.6 0 110 3.1 1.6 1.6 0 010-3.1zm0 4a1.6 1.6 0 110 3.2 1.6 1.6 0 010-3.2zm0 4a1.6 1.6 0 110 3.2 1.6 1.6 0 010-3.1zm0 4.1a1.6 1.6 0 110 3.1 1.6 1.6 0 010-3zM26.3 9.3a1.6 1.6 0 110 3.1 1.6 1.6 0 010-3.1zm0 4a1.6 1.6 0 110 3.1 1.6 1.6 0 010-3.1zm0 4a1.6 1.6 0 110 3.2 1.6 1.6 0 010-3.2zm0 4a1.6 1.6 0 110 3.2 1.6 1.6 0 010-3.1zm-4-8a1.6 1.6 0 110 3.1 1.6 1.6 0 010-3.1zm0 4a1.6 1.6 0 110 3.2 1.6 1.6 0 010-3.2z"/></g></svg>