<svg xmlns="http://www.w3.org/2000/svg" width="56" height="98"><path d="M54.5 32.2H53v-4.6c0-5-4.1-9.2-9.1-9.2H9.1c-5 0-9.1 4.1-9.1 9.2v42.8c0 5 4 9.2 9 9.2H44c5 0 9-4.1 9-9.2V67h1.6a.8.8 0 00.8-.8V52.5a.8.8 0 00-.8-.8H53v-8.8h1.5c.8 0 1.5-.7 1.5-1.5v-7.7a1.5 1.5 0 00-1.5-1.5zM34 29.1c3 0 5.3 2.4 5.3 5.3S37 39.8 34 39.8s-5.3-2.4-5.3-5.4 2.4-5.3 5.3-5.3zm-15.2 0c3 0 5.3 2.4 5.3 5.3S22 39.8 19 39.8c-2.9 0-5.3-2.4-5.3-5.4s2.4-5.3 5.3-5.3zM5.3 49.4c0-3 2.4-5.4 5.3-5.4 3 0 5.3 2.4 5.3 5.4 0 3-2.4 5.4-5.3 5.4-3 0-5.3-2.4-5.3-5.4zm13.6 19.5c-2.9 0-5.3-2.4-5.3-5.4a5.3 5.3 0 1110.6 0c0 3-2.3 5.4-5.3 5.4zm1.5-20c0-3.3 2.7-6 6-6s6.1 2.7 6.1 6-2.7 6.2-6 6.2a6 6 0 01-6-6.1zm13.7 20c-3 0-5.3-2.4-5.3-5.4a5.3 5.3 0 1110.6 0c0 3-2.4 5.4-5.3 5.4zm8.3-14.1c-3 0-5.3-2.4-5.3-5.4 0-3 2.4-5.4 5.3-5.4 3 0 5.3 2.4 5.3 5.4 0 3-2.4 5.4-5.3 5.4zM9.6 15.3h33.7c.9 0 1.5-.7 1.3-1.5L43 3c-.2-1.6-1.8-3-3.5-3h-26A3.7 3.7 0 0010 3L8.3 13.8c0 .8.5 1.5 1.3 1.5zm33.7 67.4H9.6c-.8 0-1.4.7-1.3 1.5L10 95c.2 1.6 1.8 3 3.5 3h26c1.7 0 3.3-1.4 3.5-3l1.6-10.8c.2-.8-.4-1.5-1.3-1.5z" fill="#363636"/></svg>