<svg xmlns="http://www.w3.org/2000/svg" width="163" height="35"><path d="M-.2.7v33.6h13.6A15.7 15.7 0 0025 29.5a16.5 16.5 0 004.7-12 16.5 16.5 0 00-4.7-12A15.7 15.7 0 0013.4.7H-.2zm7.8 26.2V8.1h5.8a8.6 8.6 0 016.5 2.6 9.4 9.4 0 012.5 6.8 9.4 9.4 0 01-2.5 6.8 8.6 8.6 0 01-6.5 2.6H7.6zm34.8-6h12v-7.2h-12V8h13.3V.7h-21v33.6h21.2v-7.4H42.4v-6zm36.3 13.4L89.7.7h-8.4l-7.5 24.7L66.3.7h-8.5l11 33.6h10zm14.4 0h7.8V.7H93v33.6zm38.6-1.4a15.5 15.5 0 006-5.7l-6.6-3.8a7.5 7.5 0 01-3.2 3 9.9 9.9 0 01-4.6 1 9.6 9.6 0 01-7.2-2.7 10 10 0 01-2.7-7.2 10 10 0 012.7-7.2 9.6 9.6 0 017.2-2.8 9.9 9.9 0 014.6 1 7.6 7.6 0 013.2 3.1l6.7-3.8a15.9 15.9 0 00-6.1-5.7 17.4 17.4 0 00-8.4-2 17.1 17.1 0 00-17.6 17.4A17.1 17.1 0 00123.3 35a17.5 17.5 0 008.4-2.1zm18-12h12v-7.2h-12V8h13.2V.7h-21v33.6H163v-7.4h-13.5v-6z" data-name="-e-logo" fill-rule="evenodd"/></svg>
